<?xml version="1.0" encoding="UTF-8"?>
<svg version="1.1" xmlns="http://www.w3.org/2000/svg" width="160" height="160">
<path d="M0 0 C3.034561 2.23979503 5.56003559 4.73845088 8.109375 7.51171875 C9.52097872 9.16589634 9.52097872 9.16589634 11.625 8.9375 C11.955 8.2775 12.285 7.6175 12.625 6.9375 C13.285 6.9375 13.945 6.9375 14.625 6.9375 C14.625 6.2775 14.625 5.6175 14.625 4.9375 C16.05078125 3.68359375 16.05078125 3.68359375 17.9375 2.375 C18.55238281 1.94058594 19.16726562 1.50617187 19.80078125 1.05859375 C25.12744742 -2.21496769 31.61082458 -1.57820828 37.625 -1.0625 C43.04074056 0.59441363 46.41953906 4.46928172 49.625 8.9375 C49.625 9.5975 49.625 10.2575 49.625 10.9375 C50.84123047 10.34001953 50.84123047 10.34001953 52.08203125 9.73046875 C66.02138996 3.06099677 74.19228229 1.9375 90.625 1.9375 C90.625 53.4175 90.625 104.8975 90.625 157.9375 C66.865 157.9375 43.105 157.9375 18.625 157.9375 C20.23963843 153.0935847 24.30007191 151.36105202 28.625 148.9375 C32.49462668 147.21188307 36.44212506 145.78066332 40.4375 144.375 C42.56161722 143.60010676 44.68532038 142.8240775 46.80859375 142.046875 C48.31655518 141.50063477 48.31655518 141.50063477 49.85498047 140.94335938 C53.25391096 139.70912761 56.63516348 138.4496744 60 137.125 C60.87398437 136.78855469 61.74796875 136.45210937 62.6484375 136.10546875 C65.01596195 134.70647703 65.6580668 133.47171504 66.625 130.9375 C66.1403125 130.68097656 65.655625 130.42445313 65.15625 130.16015625 C59.91318248 127.16555807 56.26502333 123.63334923 52.38671875 119.0234375 C50.71355577 116.9700528 50.71355577 116.9700528 49.0234375 115.39453125 C44.45302804 110.63262419 41.625 102.45970815 41.625 95.9375 C39.645 95.6075 37.665 95.2775 35.625 94.9375 C34.02665715 90.56379194 33.15550213 86.42695357 32.5625 81.8125 C31.99383345 77.16304684 31.99383345 77.16304684 30.9453125 72.61328125 C30.83960937 72.06027344 30.73390625 71.50726563 30.625 70.9375 C31.264375 70.380625 31.90375 69.82375 32.5625 69.25 C35.37866689 66.09247955 34.95021142 63.85289568 34.765625 59.765625 C34.71921875 59.16234375 34.6728125 58.5590625 34.625 57.9375 C28.73588048 62.22049601 24.34112846 67.8000923 19.8125 73.4375 C19.090625 74.2625 18.36875 75.0875 17.625 75.9375 C16.965 75.9375 16.305 75.9375 15.625 75.9375 C15.13 77.4225 15.13 77.4225 14.625 78.9375 C9.29134615 80.30192308 9.29134615 80.30192308 5.91796875 78.45703125 C5.16128906 77.95558594 4.40460938 77.45414062 3.625 76.9375 C3.68558594 77.49171631 3.74617188 78.04593262 3.80859375 78.61694336 C5.13550242 91.21364459 5.89468756 103.80371603 6.03442383 116.46731567 C6.05310491 117.94456244 6.0804161 119.42172587 6.11645508 120.89865112 C6.16428221 122.99035188 6.17852245 125.07968688 6.18359375 127.171875 C6.20377563 128.98510254 6.20377563 128.98510254 6.22436523 130.83496094 C5.625 133.9375 5.625 133.9375 3.23144531 136.29711914 C-6.05235522 142.13993066 -17.76257174 141.59892968 -28.375 141.9375 C-27.57803711 142.24453857 -26.78107422 142.55157715 -25.95996094 142.86791992 C-22.98821306 144.02097716 -20.02209571 145.18724779 -17.05908203 146.36254883 C-15.77893554 146.86720643 -14.49671669 147.36664126 -13.21240234 147.8605957 C-11.36011118 148.5740655 -9.51587202 149.30832823 -7.671875 150.04296875 C-6.56166992 150.47762451 -5.45146484 150.91228027 -4.30761719 151.36010742 C-1.375 152.9375 -1.375 152.9375 2.625 157.9375 C-21.135 157.9375 -44.895 157.9375 -69.375 157.9375 C-69.375 106.4575 -69.375 54.9775 -69.375 1.9375 C-52.28892489 1.9375 -42.76079357 3.38771541 -29.375 12.9375 C-29.375 11.6175 -29.375 10.2975 -29.375 8.9375 C-28.715 8.9375 -28.055 8.9375 -27.375 8.9375 C-27.16875 8.380625 -26.9625 7.82375 -26.75 7.25 C-21.10402176 -2.24550886 -9.74383774 -3.06750447 0 0 Z " fill="#F53E5D" transform="translate(69.375,2.0625)"/>
<path d="" fill="#FF5555" transform="translate(0,0)"/>
</svg>
